<?xml version="1.0" encoding="utf-8"?>
<!-- Generator: Adobe Illustrator 27.4.0, SVG Export Plug-In . SVG Version: 6.00 Build 0)  -->
<svg version="1.1" id="Layer_1" xmlns="http://www.w3.org/2000/svg" xmlns:xlink="http://www.w3.org/1999/xlink" x="0px" y="0px"
	 viewBox="0 0 529.01 111.6" style="enable-background:new 0 0 529.01 111.6;" xml:space="preserve">
<style type="text/css">
	.st0{fill:#007E79;}
	.st1{fill:#3F3F40;}
</style>
<g>
	<path class="st0" d="M236.26,111.57l-1.93-0.83c-0.93-0.4-1.76-0.78-2.53-1.17c-4.3-2.13-8.31-4.81-11.89-7.95
		c-3.6-3.14-6.83-6.71-9.6-10.6c-2.79-3.9-5.03-8.11-6.67-12.51c-2.44-6.7-3.72-13.45-3.78-20.08c-0.07-6.63,0.9-12.98,2.87-18.87
		c1.97-5.88,4.86-11.4,8.6-16.39c3.74-5.01,8.26-9.31,13.43-12.8c5.14-3.48,10.92-6.18,17.15-8.02c6.25-1.85,13.01-2.58,20.06-2.17
		c5.2,0.28,10.21,1.4,14.89,3.34c4.57,1.89,9,4.23,13.17,6.93c4.56,3.2,8.46,6.89,11.66,11c3.18,4.08,5.95,8.63,8.24,13.51
		c2.07,4.58,3.36,9.38,3.84,14.3v0c0.46,4.78,0.57,9.65,0.3,14.47c-0.01,2.82-0.4,5.57-1.17,8.18c-0.74,2.52-1.6,4.96-2.54,7.26
		c-2.43,6.53-5.99,12.38-10.56,17.32c-4.56,4.93-9.83,8.96-15.67,11.97c-1.37,0.71-2.85,1.39-4.52,2.07l-1.91,0.79l-3.52-8.4
		l1.91-0.81c1.66-0.7,3.24-1.47,4.69-2.28c5.91-3.29,10.78-7.42,14.46-12.27c3.71-4.87,6.38-10.16,7.95-15.71
		c1.57-5.57,2.14-11.35,1.7-17.17c-0.44-5.83-1.88-11.48-4.27-16.8c-2.39-5.31-5.77-10.23-10.05-14.61
		c-4.27-4.36-9.5-7.93-15.54-10.58c-3.6-1.5-7.64-2.55-11.97-3.12c-4.3-0.57-8.59-0.54-12.74,0.09c-8.65,1.39-16.25,4.75-22.58,9.99
		c-6.37,5.27-11.22,11.6-14.43,18.82c-3.2,7.21-4.57,15.08-4.07,23.38c0.5,8.25,3.36,16.15,8.51,23.48
		c3.66,5.46,8.29,9.94,13.8,13.35c2,1.24,4.18,2.36,6.48,3.34l1.9,0.81L236.26,111.57z"/>
	<g>
		<polygon class="st1" points="186.9,111.6 120.63,111.6 120.63,103.79 121.02,103.12 176.19,9.11 120.63,9.11 120.63,0.09 
			192.56,0.09 133.85,102 186.9,102 		"/>
	</g>
	<g>
		<path class="st1" d="M55.23,111.51c-3.63,0-7.31-0.36-11.01-1.07c-4.14-0.73-8.24-2.06-12.16-3.98
			c-3.88-1.89-7.55-4.19-10.92-6.85c-3.38-2.67-6.47-5.73-9.18-9.1c-2.74-3.41-4.97-7.08-6.62-10.91
			c-3.25-7.3-5.03-14.54-5.29-21.47c-0.26-6.91,0.66-13.49,2.71-19.56c2.05-6.05,5.09-11.64,9.04-16.61
			c3.93-4.95,8.57-9.2,13.79-12.63S36.56,3.35,42.7,1.76c6.15-1.59,12.47-2.1,18.77-1.55c6.34,0.57,12.69,2.41,18.89,5.49
			c6.2,3.08,12.08,7.63,17.47,13.53c3.61,3.92,6.49,8.33,8.57,13.1c2.04,4.68,3.53,9.63,4.44,14.7c1.13,6.57,1.15,12.92,0.07,18.89
			c-1.08,5.95-3.06,11.55-5.88,16.63c-2.82,5.08-6.44,9.68-10.74,13.67c-4.3,3.99-9.16,7.26-14.44,9.73c-5.27,2.45-10.99,4.14-17,5
			C60.36,111.33,57.81,111.51,55.23,111.51z M47.86,101.62c4.29,0.73,8.68,0.85,13.03,0.34c4.37-0.51,8.61-1.58,12.6-3.19
			c3.99-1.6,7.72-3.76,11.11-6.42c3.37-2.64,6.33-5.79,8.8-9.35c3.41-4.8,5.8-9.9,7.13-15.2c1.33-5.34,1.8-10.68,1.39-15.87
			c-0.41-5.17-1.71-10.2-3.86-14.96c-2.16-4.78-5.05-9.13-8.58-12.94c-3.52-3.8-7.77-7-12.64-9.53C72,12,66.57,10.4,60.7,9.76
			c-4.78-0.55-9.61-0.35-14.37,0.62c-4.74,0.96-9.22,2.69-13.32,5.15c-3.06,1.76-5.98,3.97-8.74,6.59
			c-2.77,2.63-5.25,5.56-7.37,8.69c-2.11,3.12-3.86,6.5-5.19,10.04c-1.3,3.45-2,7.01-2.09,10.58c-0.28,5.74,0.21,11.32,1.46,16.65
			c1.22,5.21,3.6,10.21,7.06,14.86c3.52,5,7.86,9.11,12.93,12.26C36.15,98.35,41.81,100.51,47.86,101.62z"/>
	</g>
	<g>
		<polygon class="st1" points="404.47,111.6 395.46,111.6 395.16,61.66 336.83,14.22 337.13,111.6 327.53,111.6 327.53,0.09 
			334.59,0.09 395.46,49.51 395.46,0.09 404.47,0.09 		"/>
	</g>
	<g>
		<path class="st1" d="M477.37,111.6h-8.52c-1.37,0-2.9-0.14-4.55-0.42l-0.02,0c-6.79-1.2-12.99-3.46-18.46-6.73
			c-5.4-3.22-10.4-7.26-14.87-11.99c-5.14-5.95-8.76-12.51-10.83-19.59c-2.04-6.97-2.94-14.31-2.68-21.82
			c0.27-4.89,1.35-9.79,3.23-14.61c1.84-4.74,4.12-9.09,6.77-12.94c5.48-7.48,11.89-13.14,19.09-16.88
			c7.16-3.71,14.66-5.86,22.31-6.4c7.64-0.53,15.21,0.48,22.51,3c7.29,2.52,13.88,6.35,19.59,11.39
			c5.73,5.07,10.32,11.37,13.64,18.74c3.34,7.41,4.83,15.81,4.43,24.96l-0.12,2.64h-55.48V50.1h44.99
			c-2.5-15.2-10.26-26.49-23.65-34.46c-4.12-2.47-8.61-4.08-13.37-4.78c-4.86-0.72-9.77-0.78-14.58-0.18
			c-5.36,0.6-10.45,2.25-15.17,4.9c-4.78,2.69-8.96,6.05-12.42,9.98c-5.02,5.62-8.4,11.85-10.05,18.54
			c-1.67,6.75-1.89,13.46-0.63,19.95c1.25,6.48,3.97,12.65,8.09,18.32c4.12,5.67,9.49,10.37,15.95,13.96
			c3.01,1.62,6.33,2.81,9.86,3.51c2.99,0.6,7.03,1.14,10.27,1.57l4.66,0.63V111.6z"/>
	</g>
</g>
</svg>
