<?xml version="1.0" encoding="UTF-8"?>
<svg width="954px" height="201px" viewBox="0 0 954 201" version="1.1" xmlns="http://www.w3.org/2000/svg" xmlns:xlink="http://www.w3.org/1999/xlink">
    <title>Ozone-Logo-White</title>
    <g id="Ozone-Logo-White" stroke="none" stroke-width="1" fill="none" fill-rule="evenodd">
        <g id="Group-11" transform="translate(1.000000, 0.000000)" fill="#FFFFFF">
            <path d="M426.598534,201 L423.125258,199.496644 C421.455275,198.77561 419.961838,198.08522 418.560278,197.387619 C410.808458,193.54631 403.598888,188.722593 397.131532,183.05887 C390.653368,177.393345 384.834549,170.967129 379.837211,163.956875 C374.814652,156.92499 370.770303,149.339712 367.819459,141.411943 C363.414812,129.334622 361.125115,117.159962 361.006217,105.20702 C360.881914,93.261288 362.622155,81.8166749 366.1783,71.1940406 C369.725437,60.5912347 374.937153,50.6517802 381.667527,41.6478674 C388.414113,32.6241261 396.553254,24.8603918 405.863363,18.57658 C415.130237,12.3053863 425.528448,7.43840635 436.764352,4.11083415 C448.030882,0.776051622 460.194555,-0.541638124 472.898675,0.201026959 C482.261028,0.698540461 491.291907,2.72284359 499.715683,6.21625361 C507.941294,9.63215248 515.921903,13.8357811 523.432322,18.7153791 C531.639919,24.481849 538.66934,31.1279804 544.443121,38.5492235 C550.162858,45.9109813 555.154792,54.1055334 559.280208,62.9075567 C563.003892,71.1688044 565.324213,79.8194106 566.196135,88.677314 L566.196135,88.6827217 C567.033829,97.2954736 567.217581,106.074063 566.743789,114.771537 C566.734781,119.856629 566.026795,124.819146 564.637845,129.520288 C563.297535,134.055593 561.759061,138.455703 560.06746,142.599846 C555.689835,154.368925 549.272921,164.910443 541.034699,173.822424 C532.825301,182.710971 523.326034,189.968179 512.796315,195.392158 C510.322866,196.666585 507.662063,197.888738 504.660778,199.132522 L501.218127,200.556564 L494.876876,185.407638 L498.315923,183.956557 C501.310003,182.691143 504.152757,181.306757 506.768523,179.843058 C517.418943,173.90354 526.1832,166.466074 532.821698,157.728943 C539.498026,148.941341 544.315216,139.416481 547.136352,129.417541 C549.964694,119.380747 550.99875,108.96541 550.206094,98.4617462 C549.411636,87.9562799 546.824694,77.7680686 542.52093,68.1819208 C538.218967,58.6047859 532.126322,49.7468825 524.414135,41.8533621 C516.719964,33.9868805 507.299963,27.5678747 496.418953,22.7729982 C489.937185,20.0709231 482.659158,18.1709983 474.858698,17.1507351 C467.103276,16.1250642 459.383884,16.1773392 451.900487,17.3129678 C436.313979,19.8221663 422.617237,25.880655 411.230007,35.3153857 C399.758107,44.8150095 391.013666,56.2307812 385.236282,69.245446 C379.464302,82.2438876 376.999861,96.4266276 377.907813,111.3989 C378.806758,126.270227 383.964429,140.51065 393.238509,153.721797 C399.826564,163.567517 408.174677,171.63769 418.1045,177.777295 C421.71469,180.008896 425.641942,182.035002 429.76916,183.796127 L433.188391,185.258024 L426.598534,201 Z" id="Fill-1"></path>
            <polygon id="Fill-3" points="336.850668 201 218 201 218 186.925349 218.71022 185.712204 317.647823 16.246776 218 16.246776 218 0 347 0 241.715253 183.686089 336.850668 183.686089"></polygon>
            <path d="M86.1139015,183.174135 C93.8410983,184.486424 101.726617,184.69913 109.558163,183.792425 C117.42569,182.878509 125.052137,180.947929 132.234202,178.047554 C139.407272,175.161598 146.130562,171.271598 152.225962,166.480299 C158.294376,161.71604 163.621554,156.04868 168.052773,149.626033 C174.193151,140.982588 178.494833,131.785747 180.882258,122.233794 C183.282277,112.61154 184.126062,102.989286 183.383028,93.6266059 C182.638194,84.3089906 180.302944,75.2347257 176.434847,66.657977 C172.545162,58.0469791 167.349319,50.1966764 160.991248,43.3287881 C154.656566,36.4861362 147.010329,30.7106207 138.254039,26.1572649 C129.539128,21.6291454 119.760941,18.7449929 109.200139,17.5877267 C100.598572,16.5890888 91.9088493,16.9658313 83.3378678,18.7035332 C74.8082659,20.4286169 66.7464337,23.5507121 59.3754616,27.9850966 C53.8737694,31.1576644 48.6077612,35.1359923 43.6458034,39.8569895 C38.6604571,44.603223 34.1986531,49.8740118 30.3845303,55.5287534 C26.5865996,61.1492457 23.4471448,67.2384127 21.0399295,73.6232054 C18.7046789,79.8367516 17.4417005,86.2503858 17.2815793,92.6892564 C16.7778273,103.030746 17.6665898,113.089228 19.9172821,122.702469 C22.1140009,132.097596 26.3904961,141.106967 32.6208297,149.481825 C38.9591101,158.502012 46.7564724,165.898061 55.8815812,171.581644 C65.0408732,177.283253 75.2130666,181.184069 86.1139015,183.174135 M99.366179,201 C92.8371924,201 86.2092545,200.354671 79.5507317,199.065815 C72.0934021,197.755328 64.7314255,195.343456 57.6681019,191.896894 C50.6947341,188.495396 44.0811891,184.344019 38.0163741,179.556326 C31.9263715,174.747001 26.3707058,169.229257 21.5041011,163.1473 C16.5727282,156.995043 12.5643011,150.379518 9.59036479,143.47738 C3.74504174,130.309421 0.535421446,117.271249 0.076647245,104.773856 C-0.387524299,92.3125139 1.25866548,80.449634 4.95764492,69.5114855 C8.64582967,58.6093888 14.1169369,48.5346835 21.2252383,39.5649691 C28.3029548,30.6349117 36.6436497,22.9792893 46.027831,16.8017951 C55.4120123,10.6261035 65.7731128,6.04030091 76.8250732,3.17777951 C87.8860293,0.317060708 99.256433,-0.613078488 110.601649,0.390967117 C122.002638,1.41484127 133.43781,4.74243227 144.594119,10.2836103 C155.74503,15.826591 166.322025,24.032005 176.030047,34.6709227 C182.523051,41.7352939 187.715295,49.6847393 191.448458,58.2795139 C195.111455,66.7210679 197.80293,75.638507 199.440125,84.7848758 C201.476722,96.6351376 201.516303,108.083421 199.575058,118.843112 C197.632015,129.570357 194.073366,139.654075 188.987269,148.822075 C183.90657,157.982865 177.408168,166.274803 169.670177,173.472567 C161.939382,180.666725 153.199283,186.566619 143.694561,191.008214 C134.216826,195.431783 123.929489,198.465551 113.116811,200.022993 C108.595636,200.675533 104.007894,201 99.366179,201" id="Fill-5"></path>
            <polygon id="Fill-7" points="728 201 711.838662 201 711.307782 110.982082 606.695805 25.4634369 607.223097 201 590 201 590 0 602.667576 0 711.838662 89.0841748 711.838662 0 728 0"></polygon>
            <path d="M859.940129,201 L844.60286,201 C842.136945,201 839.377641,200.747637 836.411344,200.246515 L836.371745,200.239305 C824.157368,198.079796 812.983355,193.99872 803.153896,188.109641 C793.441432,182.301679 784.436344,175.028207 776.388823,166.494721 C767.133543,155.771081 760.624969,143.947859 756.900898,131.185484 C753.223625,118.612381 751.601881,105.381332 752.082465,91.8600645 C752.563048,83.0399657 754.51598,74.2108539 757.896263,65.5205419 C761.208148,56.9816479 765.312006,49.1313453 770.085441,42.1949586 C779.949099,28.7043353 791.4831,18.5070537 804.449851,11.7725576 C817.339204,5.08312642 830.845937,1.20394131 844.59926,0.244960611 C858.356184,-0.705007116 871.983512,1.11020636 885.115857,5.65274653 C898.237402,10.1934841 910.097192,17.1046345 920.369436,26.1897149 C930.684879,35.3270705 938.939393,46.6924339 944.913386,59.9649431 C950.921578,73.3203718 953.601685,88.454962 952.88711,104.950512 L952.678317,109.714771 L852.821375,109.714771 L852.821375,90.1457964 L933.80597,90.1457964 C929.304326,62.7391373 915.34761,42.3878363 891.235645,28.0247569 C883.819902,23.5723465 875.732782,20.6737732 867.175878,19.4047461 C858.419181,18.1050749 849.590487,17.9915114 840.936387,19.0766738 C831.292321,20.1528232 822.127038,23.1253028 813.629533,27.912996 C805.024031,32.7601748 797.505691,38.8150924 791.279707,45.9065023 C782.24582,56.0352854 776.16563,67.2690593 773.184934,79.3338297 C770.173638,91.4959403 769.790251,103.591355 772.043773,115.288396 C774.286495,126.976424 779.187726,138.085819 786.603469,148.310139 C794.019212,158.532657 803.677678,167.003053 815.319674,173.479777 C820.728487,176.399982 826.71688,178.539662 833.06886,179.814097 C838.454273,180.892049 845.720621,181.861846 851.552419,182.642369 L859.940129,183.785215 L859.940129,201 Z" id="Fill-9"></path>
        </g>
    </g>
</svg>